<?xml version="1.0" encoding="UTF-8"?><svg id="b" xmlns="http://www.w3.org/2000/svg" viewBox="0 0 44.15 31.3"><g id="c"><path d="M43.73,30.35c-.25-.05-.5-.11-.74-.22-.4-.18-.79-.41-1.18-.61-3.22-1.68-5.98-3.9-8.12-6.85-.09-.13-.19-.26-.29-.39.39-.36.75-.7,1.12-1.03.15-.14.21-.33.12-.5-.07-.14-.24-.28-.38-.3-.14-.02-.34.07-.46.17-.34.27-.65.58-.99.89-.28-.37-.54-.71-.82-1.07,1.19-.9,2.37-1.79,3.57-2.69,1.48,1.23,2.93,2.45,4.38,3.66.65.54,1.29,1.1,1.94,1.64.24.2.53.17.7-.04.17-.2.12-.48-.12-.69-.2-.17-.4-.34-.6-.51-1.92-1.61-3.83-3.22-5.75-4.83-.43-.36-.66-.37-1.07-.06-1.02.77-2.03,1.54-3.04,2.31-.19.14-.37.28-.57.43-.28-.36-.54-.71-.82-1.07.09-.04.15-.06.21-.09,1.59-.59,2.46-1.96,2.31-3.65-.02-.21.04-.32.19-.46,1.16-.98,1.59-2.24,1.21-3.71-.37-1.42-1.32-2.31-2.77-2.6-.35-.07-.72-.05-1.09-.08,0,0-.02-.02-.02-.04-.01-.04-.02-.08-.04-.13-.21-.79-.62-1.46-1.27-1.96-.13-.1-.08-.18-.03-.28.39-.78.53-1.61.36-2.46-.29-1.5-1.17-2.53-2.62-2.98-.48-.15-.98-.21-1.48-.16-.47.05-.93.21-1.34.44-.1.06-1.18.86-1.07.92-1.77-1.16-3.62-.74-4.73.33-1.1,1.05-1.58,2.88-.48,4.69-.13.18-.25.33-.35.5-.93,1.54-.64,3.39.71,4.6.11.1.18.17.13.35-.33,1.18-.16,2.29.54,3.32.04.05.05.15.03.2-.11.25-.24.49-.37.76-.47-.29-.94-.58-1.41-.88-.47-.29-.76-.24-1.1.19-.83,1.07-1.66,2.14-2.48,3.21-.31.4-.63.81-.94,1.22-.07-.04-.13-.07-.17-.11-1.28-.92-2.56-1.84-3.84-2.77-.5-.36-.67-.37-1.15.03-1.99,1.66-3.98,3.32-5.97,4.98-.45.37-.9.75-1.34,1.13-.23.2-.26.46-.09.67.16.2.44.23.68.07.04-.03.08-.06.12-.1,1.93-1.62,3.87-3.23,5.8-4.85.46-.38.92-.77,1.39-1.15,1.34.96,2.66,1.91,3.99,2.87-.44.56-.86,1.09-1.27,1.64-1.22,1.64-2.58,3.14-4.15,4.45-1.66,1.38-3.52,2.44-5.46,3.38-.26.13-.5.25-.81.24C.17,30.35,0,30.57,0,30.82c0,.27.18.46.45.48.05,0,.1,0,.16,0,14.27,0,28.54,0,42.8,0,.11,0,.23,0,.34,0,.25-.04.4-.23.39-.47,0-.25-.17-.41-.42-.46ZM18.88,10.78c-.52-.43-.8-1.02-.87-1.7-.06-.53.05-1.04.3-1.52.24-.45.54-.83,1.05-1,.21-.07.42-.18.62-.27.32-.14.43-.36.32-.64-.11-.25-.39-.36-.69-.24-.3.12-.59.26-.9.4-.44-.72-.57-1.48-.33-2.29.5-1.7,2.59-2.46,4.08-1.49.16.1.17.18.11.36-.1.31-.16.64-.21.97-.04.27.14.5.38.54.28.04.51-.12.57-.41.04-.21.05-.44.11-.64.32-1.05,1.05-1.68,2.11-1.87,1.14-.21,2.07.22,2.73,1.14,1,1.38.59,3.36-.86,4.13-.31.17-.4.44-.25.69.14.25.45.3.75.11.19-.12.39-.24.55-.39.15-.14.24-.1.37,0,.5.42.79.96.95,1.61-.08.05-.16.09-.24.14-.46.24-.78.61-1.02,1.06-.13.25-.05.51.17.64.22.12.52.07.63-.18.39-.84,1.6-1.12,2.47-.89,1.06.28,1.87,1.28,1.93,2.38.06,1.18-.59,2.22-1.65,2.62-.19.07-.39.1-.58.14-.27.06-.41.24-.39.5.02.25.21.42.48.41.1,0,.21-.03.31-.04.09-.02.19-.04.31-.06.06.44,0,.85-.17,1.23-.37.85-1.02,1.35-1.93,1.5-.09.01-.23-.07-.29-.15-.53-.67-1.04-1.36-1.55-2.04-.05-.06-.09-.13-.14-.19-.28-.35-.58-.4-.96-.14-.47.32-.93.65-1.39.98-.16.12-.32.17-.53.12-.34-.08-.69-.14-1.03-.16-.26-.02-.55,0-.79.08-.89.3-1.78.62-2.66.95-.19.07-.35.06-.51-.05-.19-.13-.39-.23-.58-.35-.06-.04-.13-.13-.12-.2.04-.69.52-1.03,1.2-.88.16.03.38.02.51-.07.11-.07.18-.3.15-.43-.04-.14-.19-.3-.33-.35-.34-.13-.7-.19-1.08-.1-.06.02-.18-.03-.21-.08-.62-.9-.77-1.87-.3-2.87.46-.98,1.28-1.49,2.35-1.53,1.09-.04,1.92.43,2.46,1.38.27.48.36,1,.27,1.54-.05.28.08.51.33.57.26.06.55-.08.57-.36.03-.46.07-.93-.04-1.37-.59-2.52-3.73-3.61-5.91-1.8-.21.17-.4.36-.61.56ZM34.14,30.36c-.2,0-.33-.06-.47-.21-.62-.71-1.29-1.38-1.86-2.12-.45-.59-.82-1.25-1.18-1.9-1.21-2.25-2.4-4.51-3.6-6.76-.04-.08-.09-.17-.14-.25-.15-.21-.38-.26-.6-.15-.22.11-.32.37-.21.6.17.36.36.72.55,1.07,1.31,2.43,2.61,4.87,3.93,7.29.18.32.45.6.69.88.43.5.87.99,1.34,1.52-.11.01-2.29.02-3.32.03-.18,0-.25-.06-.31-.22-1.32-3.52-2.65-7.04-3.98-10.56-.02-.06-.04-.11-.07-.17-.12-.26-.38-.37-.63-.28-.25.09-.36.34-.26.62.19.53.39,1.06.59,1.59,1.1,2.9,3.36,8.87,3.4,8.99h-2.44c-.14-.69-.28-1.37-.42-2.06-.47-2.39-.93-4.79-1.4-7.18-.02-.13-.04-.26-.07-.38-.07-.3-.28-.46-.54-.42-.28.04-.45.25-.4.57.11.69.25,1.37.38,2.05.48,2.43,1.43,7.37,1.43,7.43h-4.28c.09-.58.18-1.15.27-1.73.31-1.96.62-3.92.93-5.89.08-.5.16-1,.25-1.5.06-.36-.08-.61-.38-.66-.3-.04-.52.14-.58.5-.37,2.38-.74,4.77-1.11,7.15-.1.65-.2,1.31-.32,1.96-.01.06-.1.16-.15.16-.99,0-1.98,0-3.01,0,.2-.48,2.86-6.86,4.01-9.6.09-.21.15-.42-.03-.58-.11-.1-.3-.17-.46-.17-.23,0-.33.2-.41.39-.47,1.12-.95,2.23-1.41,3.35-.88,2.12-1.76,4.25-2.64,6.37-.07.18-.17.24-.36.24-.9-.01-1.79,0-2.75,0,.18-.19.33-.35.48-.49.42-.4.76-.85,1.04-1.36,1.41-2.64,2.85-5.27,4.29-7.9.12-.21.21-.44.02-.62-.12-.11-.33-.2-.48-.17-.15.03-.31.19-.39.34-.59,1.05-1.15,2.11-1.73,3.17-.92,1.7-1.84,3.4-2.77,5.1-.09.17-.21.32-.34.46-.43.45-.88.9-1.32,1.34-.07.07-.17.14-.26.14-.72.01-1.45,0-2.21,0,.07-.07,2.76-2.59,4.05-3.81.13-.12.23-.29.29-.45.25-.68.49-1.36.7-2.05.13-.4.33-.74.58-1.07.83-1.1,1.65-2.21,2.47-3.31.21-.28.19-.56-.04-.74-.23-.17-.52-.11-.73.16-.93,1.25-1.87,2.5-2.79,3.76-.09.12-.15.26-.2.39-.28.79-.55,1.58-.83,2.36-.05.14-.14.28-.25.39-1.51,1.43-3.02,2.85-4.53,4.27-.06.05-.15.1-.23.1-1.27,0-3.85-.01-3.88-.03.05-.04,6.26-4.34,8.52-7.38,1.66-2.22,3.38-4.4,5.06-6.6.13-.17.22-.19.4-.08.96.6,1.93,1.18,2.9,1.78.3.19.58.22.92.09.9-.33,1.81-.63,2.7-.97.42-.16.81-.02,1.21.02.18.02.36.05.54.08.32.06.6,0,.86-.2.43-.32.88-.62,1.35-.94.31.4.6.79.89,1.18,1.74,2.29,3.47,4.6,5.24,6.86,1.75,2.25,3.94,4.02,6.38,5.47.37.22,1.11.68,1.12.72-.08,0-4.74,0-7.01.01Z"/><path d="M8.21,9.89c1.17,0,2.34,0,3.51,0h0c1.19,0,2.37,0,3.56,0,.29,0,.44-.1.47-.35.08-.88-.22-1.68-1.08-2-.42-.16-.7-.4-.99-.71-1.08-1.13-2.88-.98-3.85.28-.07.09-.18.2-.29.22-1.14.15-1.8.89-1.81,2.05,0,.39.11.51.49.51ZM9.64,8.14c.1,0,.2.05.31.06.19.02.35-.07.35-.26,0-.22.12-.33.24-.47.77-.83,2.06-.79,2.76.08.05.07.1.17.1.25,0,.38.14.5.51.4.47-.13,1.01.29,1.01.78h-6.35c0-.44.58-.9,1.09-.85Z"/><path d="M5.87,23.4c.47-.57.93-1.15,1.39-1.73.07-.09.1-.21.12-.26,0-.45-.38-.67-.7-.48-.09.05-.16.13-.23.21-.44.55-.88,1.1-1.32,1.65-.23.29-.23.57.01.76.22.18.5.13.73-.15Z"/><path d="M37.23,21.62c-.09-.09-.19-.18-.31-.22-.16-.06-.34.02-.46.15-.09.1-.15.24-.12.37.02.13.13.23.23.33.21.19.42.39.63.58.17.16.38.33.6.26.08-.02.15-.07.22-.13.09-.08.16-.18.16-.3,0-.15-.11-.27-.22-.37-.24-.22-.48-.45-.72-.67Z"/><path d="M33.89,26.2c-.12-.11-.23-.23-.35-.35-2.19-2.27-3.58-5.21-5.58-7.66-.08-.1-.16-.2-.28-.25-.29-.13-.6.19-.56.47.02.17.12.31.22.45,1.1,1.61,2.21,3.23,3.31,4.84.49.72.99,1.44,1.55,2.11.9,1.06,1.97,1.97,3.04,2.87.15.12.3.25.49.28.27.04.55-.15.6-.42-.72-.87-1.64-1.55-2.45-2.34Z"/><path d="M22.15,6.31c.13-.04.25-.16.34-.26.24-.26.48-.5.83-.61.89-.26,2.01.56,2.07,1.53.03.43.04.87.07,1.31.02.32.22.52.49.51.29-.02.48-.26.46-.59-.03-.41-.08-.82-.07-1.23.03-1.12-1.22-2.53-2.64-2.52-.79,0-1.65.46-2.04,1.14-.08.14-.06.38,0,.53.08.19.3.26.49.19Z"/><path d="M27.97,12.68c.07-.04.13-.09.2-.12.31-.17.66-.13.9.1.3.28.35.63.23,1.01-.07.21-.18.42-.26.63-.09.24,0,.49.22.6.22.11.49.06.6-.15.23-.44.42-.9.42-1.41,0-.06,0-.12-.02-.18-.07-.68-.41-1.18-1.03-1.47-.63-.29-1.22-.16-1.78.22-.25.17-.3.44-.16.66.14.22.42.28.67.13Z"/></g></svg>