<?xml version="1.0" encoding="UTF-8"?><svg id="b" xmlns="http://www.w3.org/2000/svg" viewBox="0 0 28.35 20.1"><defs><style>.d{fill:#fff;}</style></defs><g id="c"><path class="d" d="M28.08,19.49c-.16-.03-.32-.07-.47-.14-.26-.12-.51-.26-.76-.39-2.07-1.08-3.84-2.5-5.22-4.4-.06-.08-.13-.17-.19-.25.25-.23.48-.45.72-.66.1-.09.13-.21.08-.32-.05-.09-.15-.18-.24-.2-.09-.01-.22.05-.3.11-.22.18-.42.37-.63.57-.18-.24-.35-.46-.53-.69.77-.58,1.52-1.15,2.29-1.73.95.79,1.88,1.57,2.81,2.35.42.35.83.7,1.25,1.05.15.13.34.11.45-.02.11-.13.08-.31-.08-.44-.13-.11-.26-.22-.39-.33-1.23-1.03-2.46-2.07-3.69-3.1-.28-.23-.42-.24-.69-.04-.65.49-1.3.99-1.96,1.48-.12.09-.24.18-.37.28-.18-.23-.35-.45-.52-.69.06-.02.1-.04.14-.06,1.02-.38,1.58-1.26,1.49-2.35-.01-.13.02-.21.12-.29.75-.63,1.02-1.44.78-2.38-.24-.91-.85-1.48-1.78-1.67-.23-.05-.46-.04-.7-.05,0,0-.01-.02-.01-.03,0-.03-.02-.05-.02-.08-.14-.51-.4-.94-.82-1.26-.09-.07-.05-.12-.02-.18.25-.5.34-1.03.23-1.58-.19-.96-.75-1.63-1.68-1.91-.31-.09-.63-.14-.95-.1-.3.03-.6.13-.86.29-.06.04-.76.55-.69.59-1.13-.74-2.32-.47-3.04.21-.7.67-1.01,1.85-.31,3.01-.08.11-.16.21-.23.32-.6.99-.41,2.17.46,2.95.07.06.12.11.08.22-.21.76-.1,1.47.35,2.13.02.03.04.1.02.13-.07.16-.15.32-.24.49-.3-.19-.6-.38-.9-.56-.3-.19-.49-.16-.71.12-.53.69-1.06,1.37-1.59,2.06-.2.26-.4.52-.61.78-.05-.03-.08-.05-.11-.07-.82-.59-1.65-1.18-2.47-1.78-.32-.23-.43-.24-.74.02-1.28,1.07-2.55,2.13-3.83,3.2-.29.24-.58.48-.86.72-.15.13-.16.3-.06.43.1.13.28.15.44.04.03-.02.05-.04.08-.06,1.24-1.04,2.48-2.08,3.73-3.11.3-.25.59-.49.89-.74.86.62,1.7,1.23,2.56,1.85-.28.36-.55.7-.81,1.05-.78,1.05-1.66,2.02-2.66,2.86-1.07.89-2.26,1.57-3.5,2.17-.17.08-.32.16-.52.16C.11,19.49,0,19.63,0,19.79c0,.17.11.29.29.31.03,0,.07,0,.1,0,9.16,0,18.32,0,27.48,0,.07,0,.15,0,.22,0,.16-.02.26-.15.25-.3,0-.16-.11-.26-.27-.29ZM12.13,6.92c-.34-.28-.51-.65-.56-1.09-.04-.34.03-.67.19-.97.15-.29.35-.53.68-.64.14-.04.27-.11.4-.17.2-.09.28-.23.2-.41-.07-.16-.25-.23-.44-.15-.19.08-.38.17-.58.26-.28-.47-.36-.95-.21-1.47.32-1.09,1.66-1.58,2.62-.96.1.07.11.12.07.23-.06.2-.1.41-.14.62-.03.17.09.32.24.35.18.03.33-.07.36-.26.03-.14.03-.28.07-.41.21-.67.67-1.08,1.36-1.2.73-.14,1.33.14,1.76.73.64.89.38,2.16-.55,2.65-.2.11-.25.28-.16.45.09.16.29.19.48.07.12-.08.25-.15.35-.25.09-.09.15-.07.24,0,.32.27.51.62.61,1.03-.05.03-.1.06-.16.09-.29.15-.5.39-.65.68-.08.16-.03.33.11.41.14.08.33.04.41-.12.25-.54,1.03-.72,1.59-.57.68.18,1.2.82,1.24,1.53.04.76-.38,1.43-1.06,1.68-.12.04-.25.06-.37.09-.17.04-.27.15-.25.32.01.16.14.27.31.26.07,0,.13-.02.2-.03.06-.01.12-.02.2-.04.04.28,0,.54-.11.79-.24.54-.66.87-1.24.96-.06,0-.15-.04-.18-.1-.34-.43-.67-.87-1-1.31-.03-.04-.06-.08-.09-.12-.18-.23-.37-.26-.61-.09-.3.21-.6.41-.89.63-.11.08-.21.11-.34.08-.22-.05-.44-.09-.66-.1-.17,0-.35,0-.51.05-.57.19-1.14.4-1.71.61-.12.04-.22.04-.33-.03-.12-.08-.25-.14-.37-.23-.04-.03-.08-.08-.08-.13.03-.44.34-.66.77-.57.1.02.24.01.33-.05.07-.05.12-.19.1-.27-.02-.09-.12-.19-.21-.22-.22-.08-.45-.12-.69-.06-.04.01-.11-.02-.14-.05-.4-.58-.49-1.2-.19-1.84.29-.63.82-.95,1.51-.98.7-.03,1.23.28,1.58.89.17.31.23.64.17.99-.03.18.05.33.21.36.17.04.35-.05.36-.23.02-.29.04-.6-.02-.88-.38-1.62-2.4-2.32-3.79-1.15-.13.11-.25.23-.39.36ZM21.92,19.49c-.13,0-.21-.04-.3-.14-.4-.46-.83-.89-1.2-1.36-.29-.38-.53-.8-.76-1.22-.78-1.44-1.54-2.89-2.31-4.34-.03-.05-.06-.11-.09-.16-.1-.13-.24-.17-.39-.1-.14.07-.21.24-.14.39.11.23.23.46.35.69.84,1.56,1.68,3.13,2.53,4.68.11.21.29.38.44.57.28.32.56.64.86.98-.07,0-1.47.01-2.13.02-.12,0-.16-.04-.2-.14-.85-2.26-1.7-4.52-2.56-6.78-.01-.04-.03-.07-.04-.11-.08-.17-.24-.24-.4-.18-.16.06-.23.22-.17.4.12.34.25.68.38,1.02.71,1.86,2.16,5.7,2.18,5.77h-1.57c-.09-.44-.18-.88-.27-1.33-.3-1.54-.6-3.07-.9-4.61-.02-.08-.03-.17-.05-.25-.04-.19-.18-.29-.34-.27-.18.03-.29.16-.26.37.07.44.16.88.25,1.32.31,1.56.92,4.73.92,4.77h-2.75c.06-.37.11-.74.17-1.11.2-1.26.4-2.52.59-3.78.05-.32.1-.64.16-.96.04-.23-.05-.39-.24-.42-.19-.03-.34.09-.37.32-.24,1.53-.48,3.06-.71,4.59-.07.42-.13.84-.2,1.26,0,.04-.06.1-.09.1-.64,0-1.27,0-1.93,0,.13-.31,1.84-4.4,2.58-6.16.06-.13.1-.27-.02-.37-.07-.07-.19-.11-.3-.11-.15,0-.21.13-.26.25-.3.72-.61,1.43-.91,2.15-.57,1.36-1.13,2.73-1.69,4.09-.05.12-.11.16-.23.16-.58,0-1.15,0-1.77,0,.12-.12.21-.22.31-.32.27-.26.49-.54.67-.88.91-1.7,1.83-3.39,2.75-5.08.07-.14.13-.28.01-.4-.07-.07-.21-.13-.31-.11-.09.02-.2.12-.25.22-.38.67-.74,1.36-1.11,2.03-.59,1.09-1.18,2.18-1.78,3.27-.06.11-.14.21-.22.29-.28.29-.56.58-.85.86-.04.04-.11.09-.17.09-.46,0-.93,0-1.42,0,.04-.05,1.77-1.66,2.6-2.45.08-.08.15-.18.19-.29.16-.44.31-.87.45-1.32.08-.26.21-.48.37-.69.53-.71,1.06-1.42,1.59-2.13.13-.18.12-.36-.03-.47-.15-.11-.34-.07-.47.1-.6.8-1.2,1.61-1.79,2.41-.06.07-.1.16-.13.25-.18.51-.35,1.01-.54,1.52-.03.09-.09.18-.16.25-.97.92-1.94,1.83-2.91,2.74-.04.03-.1.06-.14.06-.82,0-2.47,0-2.49-.02.03-.02,4.02-2.79,5.47-4.74,1.06-1.43,2.17-2.82,3.25-4.24.08-.11.14-.12.25-.05.62.38,1.24.76,1.86,1.14.19.12.37.14.59.06.58-.21,1.16-.4,1.74-.63.27-.1.52-.01.78.01.12.01.23.03.35.05.2.04.38,0,.55-.13.28-.21.57-.4.86-.61.2.26.38.51.57.76,1.12,1.47,2.23,2.95,3.36,4.41,1.13,1.44,2.53,2.58,4.1,3.51.24.14.71.44.72.46-.05,0-3.05,0-4.5,0Z"/><path class="d" d="M5.27,6.35c.75,0,1.5,0,2.25,0h0c.76,0,1.52,0,2.29,0,.19,0,.28-.07.3-.22.05-.56-.14-1.08-.7-1.29-.27-.1-.45-.26-.64-.45-.69-.72-1.85-.63-2.47.18-.05.06-.12.13-.18.14-.73.1-1.16.57-1.16,1.32,0,.25.07.33.31.33ZM6.19,5.22c.07,0,.13.03.2.04.12.01.23-.05.22-.17,0-.14.08-.22.15-.3.49-.53,1.32-.51,1.77.05.04.04.07.11.06.16,0,.24.09.32.33.26.3-.08.65.18.65.5h-4.08c0-.28.37-.58.7-.55Z"/><path class="d" d="M3.77,15.03c.3-.37.6-.74.89-1.11.05-.06.07-.14.08-.17,0-.29-.25-.43-.45-.31-.06.03-.1.09-.14.14-.28.35-.57.71-.85,1.06-.15.19-.14.36,0,.49.14.12.32.09.47-.09Z"/><path class="d" d="M23.9,13.88c-.06-.06-.12-.11-.2-.14-.1-.04-.22.01-.29.1-.06.07-.09.15-.08.24.02.09.08.15.15.21.13.13.27.25.4.38.11.1.24.21.39.17.05-.01.1-.05.14-.09.05-.05.1-.12.11-.19,0-.1-.07-.17-.14-.24-.15-.14-.31-.29-.46-.43Z"/><path class="d" d="M21.76,16.82c-.08-.07-.15-.15-.22-.22-1.4-1.46-2.3-3.35-3.58-4.92-.05-.06-.1-.13-.18-.16-.18-.08-.38.12-.36.3.01.11.08.2.14.29.71,1.04,1.42,2.07,2.13,3.11.32.46.63.93,1,1.35.58.68,1.27,1.26,1.95,1.84.09.08.19.16.31.18.17.03.35-.1.38-.27-.46-.56-1.05-1-1.57-1.5Z"/><path class="d" d="M14.22,4.05c.08-.03.16-.1.22-.17.15-.17.31-.32.54-.39.57-.17,1.29.36,1.33.98.02.28.03.56.04.84.01.2.14.33.31.32.19-.01.31-.17.29-.38-.02-.26-.05-.53-.05-.79.02-.72-.79-1.62-1.7-1.62-.51,0-1.06.29-1.31.73-.05.09-.04.24,0,.34.05.12.19.17.32.12Z"/><path class="d" d="M17.96,8.14s.08-.06.13-.08c.2-.11.42-.09.58.06.19.18.23.41.15.65-.04.14-.11.27-.17.4-.06.16,0,.32.14.39.14.07.31.04.38-.1.15-.28.27-.58.27-.91,0-.04,0-.08,0-.12-.05-.44-.26-.76-.66-.94-.41-.19-.79-.11-1.14.14-.16.11-.2.28-.1.42.09.14.27.18.43.08Z"/></g></svg>