<?xml version="1.0" encoding="UTF-8"?><svg id="b" xmlns="http://www.w3.org/2000/svg" viewBox="0 0 184.79 81.06"><defs><style>.d{fill:#f1f0ed;}</style></defs><g id="c"><path class="d" d="M0,24.97h31.25v12.33s-.09.1-.15.09c-2.92-.48-5.88-.71-8.84-.67.03,6.32-.07,12.66.06,18.97.15,2.25.35,4.49.61,6.73h-14.63c.21-2.32.38-4.65.55-6.97.05-1.28.02-2.56.12-3.84v-14.89c-3.02-.08-6.01.23-8.98.67v-12.42Z"/><path class="d" d="M47.21,81.06c.08-.79.66-1.4.98-2.09.79-1.68,1.16-3.68,1.14-5.52-.05-.05-.57.18-.67.21-3.47,1.39-6.84,3.08-10.32,4.44-.65.25-1.54.61-2.2.78-.06.02-.19.09-.23.01,5.14-4.16,9.7-9.01,13.65-14.32l.27-.09h13.18s.27.09.27.09c3.46,4.41,7.18,8.67,11.34,12.43,1.07.97,2.22,1.86,3.28,2.83-1.74-.54-3.37-1.33-5-2.14-3.35-1.66-6.62-3.53-9.78-5.53l-.09.09c.26.81.33,1.77.6,2.56.36,1.03,1.21,2.18,1.55,3.19.03.09.09.21-.06.18-3.1-1.82-5.73-4.34-7.82-7.25l-1.28-1.82c-.15.02-.23.32-.28.46-.23.65-.33,1.28-.61,1.94-1.6,3.74-4.58,6.82-7.52,9.54h-.42Z"/><path class="d" d="M184.79,68.64v6.46c-.13.62-.68,1.25-1.36.91s-.49-1.46-.52-2.1c-.05-1.3-.04-5.81-.52-6.72-.13-.25-.15-.33-.35-.12-1.12,1.15-1.22,4.5-2.05,6.04-.65,1.22-1.83.63-1.87-.48-.04-1.59.28-3.08-.13-4.68-.06-.24-.15-.49-.27-.71-.56,0-1.22,2.06-1.36,2.53-.6,1.92-.93,3.91-1.38,5.86-.47.7-1.48.58-1.84-.18-.33-.69-.23-2.29-.29-3.12-.14-1.87-.54-4.46-.36-6.27.1-1.06,1.15-1.32,1.71-.44.46.72.39,1.69.48,2.5,0,.06.03.23.12.22.39-1,1.28-3.05,2.28-3.52,1.44-.68,2.21.9,2.72,1.94,1.33-2.78,3.87-2.9,4.73.3l.27,1.58Z"/><path class="d" d="M58.87,0c2.09,1.1,2.71,3.77,1.57,5.8-1.33,2.36-5.35,3.77-5.57,6.65-.06.76.32,2.91-.86,1.23-1.52-2.16-1.05-5,.71-6.87,1.44-1.53,4.15-2.42,3.84-5.01-.07-.6-.59-1.24-.23-1.81h.55Z"/><path class="d" d="M152.51,62.43h-13.47c.37-1.43.8-2.84,1.02-4.3.18-1.19.23-2.41.25-3.61h-1.27c-.14,4.1-2.24,7.69-6.48,8.45-4.85.87-9.4-1.77-9.73-6.95-.56-9.09,9.11-10.55,16.06-10.63.09-.01.1.04.09-.09-.08-1.31-1.3-1.71-2.41-1.85-1.9-.24-4.12.17-5.97.63s-3.62,1.11-5.34,1.83c-.04.05-.12-.06-.12-.06v-9.01c.21-.2.51-.32.77-.45,4.77-2.38,10.83-3.46,16.12-2.55,6.6,1.14,9.73,5.5,10,12.07.17,4.14-.16,8.33.12,12.49.09,1.35.31,2.7.36,4.05ZM138.97,48.3c-1.84.16-4.05.64-3.89,2.96.09,1.31.99,1.81,2.22,1.67.89-.1,1.67-1.04,1.67-1.92v-2.71Z"/><path class="d" d="M94.73,62.43h-13.47c.7-2.58,1.36-5.2,1.21-7.92h-1.21c-.11,1.94-.61,3.98-1.77,5.56-3.2,4.37-11.09,4.04-13.59-.89-.94-1.84-1.08-4.4-.58-6.39,1.65-6.47,10.39-7.32,15.88-7.45-.11-1.19-.96-1.67-2.04-1.85-2.11-.34-4.48.09-6.53.62-1.8.46-3.55,1.11-5.27,1.81v-9.2c2.36-1.15,4.81-2.14,7.39-2.66,9.11-1.85,18.9.27,19.43,11.22.23,4.63-.11,9.27.24,13.95.08,1.07.24,2.13.3,3.2ZM81.2,48.3c-1.67.12-3.95.6-3.95,2.71,0,2.31,2.94,2.57,3.69.84.07-.16.26-.81.26-.96v-2.59Z"/><path class="d" d="M63.9,23.87c-.05,1.39-.2,2.78-.3,4.17.12,10.04-.42,20.32.06,30.33.07,1.35.15,2.7.24,4.05h-14.23c-.09,0-.04-.53-.03-.64.25-3.41.54-6.54.6-9.99.16-8.46.21-17.02-.42-25.45-.04-.59-.14-1.18-.18-1.77-.01-.17-.04-.42-.04-.58,0-.05.02-.12.07-.12h14.23Z"/><path class="d" d="M121.68,34.47v12.42c-1-.35-2.03-.67-3.08-.83-3.83-.6-7.88-.25-8.14,4.52-.13,3.94-.03,7.9-.06,11.85h-13.41l.36-4.42c.19-4.58.12-9.18.12-13.77,0-2.56.06-5.11-.18-7.67-.08-.82-.25-1.64-.3-2.47h13.41c-.37,1.66-.86,3.28-1.08,4.97-.19,1.46-.2,2.94-.25,4.41h1.27c.15-3.25.75-7.39,3.84-9.15,2.19-1.25,5.3-.96,7.51.13Z"/><path class="d" d="M47.03,34.11c-.03.93-.18,1.85-.24,2.77-.05.77-.04,1.54-.06,2.32-.19,6.17-.24,12.83,0,19,.02.61.01,1.22.06,1.83.06.8.2,1.6.24,2.41h-14.02l.55-6.49c.2-5.56.19-11.14-.06-16.69l-.48-5.15h14.02Z"/><path class="d" d="M168.41,34.11l-1.18,4.51c-.71-.3-1.51-.28-2.25-.48-.7-.19-.86-.5-.99-1.2-.06-.33-.01-1.31-.31-1.45-.26-.13-.33.13-.36.37-.04.43.25.84.24,1.27,0,.25-.26-.01-.34-.09-.36-.38-.7-1.46-.91-1.65-.13-.12-.4-.04-.58-.06-.05.76.67,1.31,1.09,1.86.07.09.18.21.18.33-.1.1-1.75-1.05-2.2-.9-.1.03-.12.1-.09.19.09.34,1.6.93,1.96,1.08.18.07.62.1.38.26-.49.32-1.11.29-1.19,1-.05.39.07.33.34.22.47-.2,1.06-.72,1.61-.61.25.05,1.09.54,1.38.69s1.17.58,1.35.76c.07.07.12.16.09.26s-.66.99-.78,1.11c-1.07,1.11-2.14.11-3.36.1-1.86-.03-3.65,1.37-4.57,2.91-.3.5-.35.89.24,1.18.93.44,3.49.46,4.47.2.86-.23,1.53-.81,2.45-.32.51.27,1.24,1.19,1.52,1.7.07.13.29.47.21.6-.03.05-.91.42-1.08.53-.32.2-1.05.94-1.33.99-.67.11-1.14-1.11-1.62-1.09-.55.02.06.97.34,1.13.2.12.92.17.7.52s-2.28.17-2.64.7c-.06.09-.22.37-.03.4.84.11,1.82-.42,2.64-.55.13.12-.84.82-.91.88-.2.19-.84,1.12-.45,1.24.52.17,1.11-1.4,1.57-1.58.08-.03.11,0,.09.09-.07.28-.48,1.3-.01,1.43.61.17.4-1.06.47-1.4.19-.9,1.84-1.38,2.56-1.75l1.29-.86v10.17c-.32-.06-.68-.29-.97-.46-.86-.52-1.73-1.32-2.24-2.2-.1-.17-.34-.84-.38-.87-.18-.18-.09.31-.08.35.45,1.61,2.28,2.97,3.66,3.76v3.08h-12.81c-.04-.66.08-1.32.12-1.98.1-1.65.14-3.29.18-4.94.15-6.17.27-12.78-.12-18.94-.05-.82-.22-1.64-.18-2.47h12.81Z"/><path class="d" d="M171.17,62.43s-.1-.09-.09-.15l.18-2.11c3.57.52,7.55-.77,9.73-3.72,2.04-2.75,2.11-6.1.71-9.17-2.33-5.1-7.97-7.33-13.3-5.99.15-2.85,1.38-5.94,4.1-7.18,1.96-.89,4.81-.94,6.78-.06,3.47,1.55,4.39,5.81,4.53,9.28.24,5.62-.25,11.3.18,16.93.05.64.22,1.42.22,2.04,0,.05-.02.12-.07.12h-12.99Z"/><path class="d" d="M33.88,30.67c-1.66-1.68-1.79-4.93-.2-6.71,2.32-2.61,8.94-2.66,11.73-.87s2.79,6.27.18,8.14c-2.7,1.94-9.3,1.88-11.71-.56ZM34.99,26.25h-1.15l.43,2.37h1.39s.04-1.19.06-1.37c.01-.1.02-.21.15-.21.09.52.11,1.05.09,1.58h1.4l.42-2.38h-1.09l-.12,1.52h-.18s-.12-1.52-.12-1.52h-.85s-.15,1.52-.15,1.52c-.12,0-.15.05-.15-.09-.02-.5-.12-.94-.12-1.43ZM39.17,26.25h-1.21l.45,2.32c.09.13,1.2.02,1.43.06l.06-1.43.18-.15.06,1.58h1.4l.42-2.38h-1.15l-.06,1.52h-.18s-.19-1.52-.19-1.52h-.78s-.12,1.52-.12,1.52h-.18s-.12-1.52-.12-1.52ZM43.36,26.25h-1.21c.21.77.4,1.57.42,2.38h1.46l.06-1.58c.08-.02.15.02.17.1,0,.02.07.45.07.48v1h1.4s.43-2.38.43-2.38h-1.15l-.06,1.37-.15.15-.25-1.53h-.75s-.12,1.53-.12,1.53h-.18s-.12-1.52-.12-1.52Z"/><path class="d" d="M145.29,22.53v6.79c0,.06-.22.13-.28.15-.92.31-2.15.52-3.12.71-3.8.73-7.65,1.1-11.5,1.43-.17-.01-.14-.14-.15-.27-.06-.69.06-1.39.07-2.07.01-1.01-.12-2.4,0-3.36,0-.07,0-.14.06-.18,5.04-.79,9.99-1.96,14.93-3.19Z"/><path class="d" d="M175.45,52.62c.03.11-.04.12-.09.18-.37.48-1.72.91-1.83,1.46-.06.32.32.38.54.24.24-.14,1.44-1.33,1.59-1.33.13,0,.03.25.01.31-.13.48-.75,1.68-.5,2.12.05.08.15.02.2-.02.37-.35.39-1.98.72-2.05.21-.04.29.76.48.98.27.3,1,.54.73-.06-.06-.14-.43-.41-.55-.67-.18-.41-.09-.81.21-1.13.38-.39.74-.17.59-1.02-.11-.63-1.31-2.14-1.31-2.27,0-.05.17-.16.23-.18.18-.07,1.09-.26,1.26-.25.58.02,1.25,1.61,1.4,2.1.39,1.31.25,3-.28,4.26-1.22,2.94-4.45,4.48-7.54,4.28v-13.66c.02-.09.79-.15.94-.16,1.26-.07,2.56,0,3.55.88-.75.74-2.7,1.45-2.17,2.79.21.54,2.33,2.35,2.29,2.51-.68.49-1.89-.09-2.51.1-.32.1.2.6.42.6h1.61Z"/><path class="d" d="M101.83,70.59l1.24-2.8c.72-1.26,1.65-3.33,3.44-2.95.84.18,1.17,1.34,1.27,2.08-.13,2.34.17,4.87,0,7.19-.05.72-.41,2.2-1.31,2.22-.59.02-.88-.5-.93-1.02-.12-1.09.2-2.73.24-3.89.04-1.29,0-2.59-.12-3.87-.43.34-.74.92-.98,1.42-.66,1.38-1.91,6.02-3,6.67-.48.28-.96.06-1.26-.36-.85-1.19-.63-4.28-.64-5.75,0-1.24-.25-3.16.49-4.25.35-.51,1.14-.72,1.53-.16.5.72.08,3.39.04,4.35-.02.37.01.75,0,1.13Z"/><path class="d" d="M96.18,73.03c-.91-.02-2.5.08-2.7,1.21-.13.79.34,2-.96,1.83-.88-.12-.84-1.13-.83-1.79.02-.78.07-.88-.09-1.67-.18-.86.2-.82.61-1.35,1.21-1.6,1.15-6.74,3.89-6.82,2.37-.07,1.97,3.21,2.1,4.78.14,1.84.38,3.7.43,5.54.01.47.05,1.2,0,1.65-.08.69-.96.81-1.45.48-1.01-.68-.77-3.72-.98-3.85ZM96.01,71.01l-.09-3.9c-.58,1.23-1.4,2.49-1.43,3.9h1.52Z"/><path class="d" d="M128.41,73.03c-.93-.03-2.53.09-2.71,1.26-.12.75.35,1.99-.95,1.78-1.26-.2-.67-2.16-.76-3.01-.05-.48-.38-.74-.05-1.27.25-.4.55-.53.81-1.08.78-1.7,1.15-6.21,3.58-6.27s1.97,3.09,2.1,4.66c.15,1.88.37,3.78.43,5.66.01.47.05,1.2,0,1.65-.08.69-.98.82-1.45.48-.94-.66-.72-2.88-.98-3.86ZM128.23,71.01v-3.38l-.12-.46c-.56,1.22-1.35,2.45-1.4,3.84h1.52Z"/><path class="d" d="M113.35,73.03c-1,0-2.53.06-2.71,1.31-.07.55.22,1.52-.44,1.69s-1.2-.24-1.31-.88.11-1.34.09-1.98c0-.3-.25-.57-.24-.92.01-.59.43-.69.7-1.07,1.19-1.67,1.11-6.84,4.01-6.76,2.14.06,1.79,3.08,1.91,4.54s.29,2.84.36,4.26c.05.96.15,2.23.06,3.17-.05.59-.65.73-1.16.61-.78-.18-1.01-1.65-1.09-2.32-.03-.29-.03-1.56-.19-1.66ZM111.66,71.01h1.49s.08-.1.09-.15c.06-.31.01-1.04,0-1.4,0-.14-.06-.28-.07-.42-.02-.62.04-1.25-.09-1.86-.58,1.23-1.36,2.44-1.43,3.84Z"/><path class="d" d="M148.76,66.4c-.28.69-.4,1.44-.5,2.18.96.09,2.16-.82,3.05-.23.68.44.45,1.72-.25,1.99-.46.17-.77-.02-1.21-.02-.68,0-1.45.3-2.07.53-.04.62-.28,2.5.32,2.86.12.07.84.02,1.03,0,1.16-.14,2.55-.87,3.7-.73.98.12.89,1.26.24,1.83-1.48,1.29-7,2.05-7.37-.77-.11-.81-.1-3.25,0-4.08.03-.25.16-.37.21-.58.17-.68.6-2.22.63-2.84.04-.7-.7-1.07.3-1.77.92-.64,4.19-1.19,5.23-.91,1.39.38.59,2.49-.52,2.41-.19-.01-.35-.15-.55-.18-.72-.1-1.54.24-2.26.31Z"/><path class="d" d="M167.54,64.45c.87-.13.7.14,1.2.59,1.02.92,2.28,1.27,2.66,2.82.82,3.33-1.44,8.62-5.44,8.2-1.88-.2-2.5-2.3-2.41-3.92.11-2,1.64-7.34,3.99-7.69ZM167.54,67.13c-.5.11-1,1.55-1.15,2.01-.32.97-1.01,3.49-.56,4.37.27.55,1.25.28,1.69.05,1.56-.81,2.69-4.03,1.79-5.55-.31-.52-1.16-1.02-1.76-.88Z"/><path class="d" d="M80.41,75.28c-.56.24-1.06.69-1.68.78-4.31.59-3.21-6.82-2.23-9.18.41-1,1.04-2,2.07-2.43,1.98-.83,3.26.82,2.93,2.69-.13.74-.71,1.73-1.57,1.16-.69-.46-.02-1.26-.14-1.81-.08-.34-.36-.22-.58-.06-1.14.84-1.59,5.32-1.47,6.69.08.9.57.97,1.3.63,1.27-.59,1.34-2.49,2.1-3.37.47-.54,1.31-.11,1.39.49.17,1.23-.08,2.9,0,4.2.03.52.32.91-.19,1.39-.88.84-1.9-.23-1.94-1.18Z"/><path class="d" d="M89.32,64.45c1.11-.18,1.42,1.39,1.47,2.21.15,2.2,0,5.92-1.19,7.82-1.76,2.83-5.69,1.39-5.91-1.79-.12-1.69-.01-3.78.06-5.48.03-.61-.13-1.37.33-1.86.38-.4,1.02-.3,1.33.13.92,1.25-.02,5.36.37,7.12.27,1.25,1.48,1.57,2.18.48.75-1.16.9-4,.82-5.38-.04-.71-.26-1.57-.24-2.25.01-.46.3-.92.78-.99Z"/><path class="d" d="M159.87,66.53c-.6.58-.96,2.24-1.1,3.07-.16.93-.47,3.23-.09,4.01.23.47.6.36,1.02.15.86-.43,1.86-2.92,3.06-1.93,1.11.92-.71,2.72-1.46,3.29-2.16,1.62-4.2,1.21-4.77-1.6-.47-2.35.21-8.19,2.88-9.13.74-.26,1.69-.21,2.29.35.64.6.59,1.94-.49,1.83-.51-.05-.72-.65-1.34-.04Z"/><path class="d" d="M119.21,73.86c.27.23.84-.06,1.1-.24.74-.53,1.68-2.76,2.86-1.76.97.83-.46,2.38-1.12,2.96-1.94,1.68-4.33,1.94-5.07-1.01-.6-2.37.1-8.4,2.76-9.41.76-.29,1.81-.23,2.4.39s.47,1.93-.61,1.76c-.45-.07-.51-.55-1.12-.14-.92.62-1.37,3.6-1.46,4.69-.04.52-.12,1.46-.06,1.95.02.16.21.72.32.8Z"/><path class="d" d="M135.74,64.15c.58-.08,1.13.1,1.22.75.19,1.4-1.92,2.04-2.76,2.83-.48.46-.7.85-.12,1.34.85.72,1.98,1.06,2.72,2.02,1.51,1.93,0,4.67-2.21,5.14-.88.19-1.97.31-1.95-.91s1.59-.97,2.28-1.55c.35-.29.52-.91.15-1.24-.42-.39-1.3-.75-1.81-1.11-.82-.57-1.7-1.34-1.71-2.43-.02-1.59,2.61-4.61,4.18-4.83Z"/><path class="d" d="M138.15,66.81c-.21-.05-.45-.46-.49-.67-.18-.97,1.39-1.4,2.11-1.55,1.17-.24,3.21-.4,4.39-.28s1.6,1.19.74,2.02l-2.53.23c-.01.46.02.92,0,1.37,0,.14-.06.28-.07.42-.05,2.17.21,4.79,0,6.88-.11,1.09-1.22,1.26-1.76.37-.66-1.09-.38-2.86-.36-4.08.03-1.58.06-3.14.06-4.72-.59-.09-1.55.12-2.09,0Z"/><path class="d" d="M62.82,4.09c.4-.25.98.96,1.08,1.24s.21.65.23.92c.51,5.09-4.59,4.87-6.41,8.35-.2.37-.54,1.58-.92,1.7-.43.14-.53-.88-.55-1.16-.05-1.18.29-3.02.88-4.05,1.42-2.5,5.03-2.7,5.55-6.07.03-.19-.03-.82.14-.93Z"/><path class="d" d="M65.83,10.61c.34.28,0,1.71-.14,2.11-1.11,3.19-6.37,4.53-6.64,8.01-.04.47.1,1.12-.09,1.55-.36.84-1.06-.9-1.17-1.2-.63-1.77-.23-4.49,1.11-5.87,1.6-1.64,4.41-1.97,5.92-3.68.2-.23.67-1.22,1.01-.93Z"/><path class="d" d="M51.32,12.49c.39-.1.85,1.05,1.02,1.33.6.92,1.48,1.41,2.21,2.16,1.13,1.16,2.19,3.31,2.3,4.94.06.89-.27.9-.79.3-.55-.64-.86-1.2-1.52-1.83-1.69-1.6-3.25-2.63-3.51-5.24-.03-.31-.09-1.57.28-1.66Z"/><path class="d" d="M154.68,74.26c1.52-.19,1.35,2.03-.06,1.8-.62-.1-.72-.7-.65-1.24.04-.37.38-.52.72-.56Z"/><path class="d" d="M160.92,43.8c1.05-.25.59,1.31-.16.99-.42-.18-.3-.88.16-.99Z"/></g></svg>